<svg width="44" height="44" viewBox="0 0 44 44" fill="none" xmlns="http://www.w3.org/2000/svg">
<path fill-rule="evenodd" clip-rule="evenodd" d="M21.6394 43.8488C33.5905 43.8488 43.2786 34.2187 43.2786 22.3394C43.2786 10.46 33.5905 0.82991 21.6394 0.82991C9.68829 0.82991 0 10.46 0 22.3394C0 34.2187 9.68829 43.8488 21.6394 43.8488Z" fill="#B72E2E"/>
<path d="M24.985 34.4068C24.817 34.0287 24.67 33.6436 24.544 33.2515C24.418 32.8454 24.3201 32.4393 24.25 32.0332C23.5221 32.8734 22.633 33.5526 21.583 34.0707C20.547 34.5888 19.357 34.8479 18.013 34.8479C15.787 34.8479 14.0161 34.2457 12.7001 33.0414C11.3981 31.8231 10.7471 30.1707 10.7471 28.0842C10.7471 25.9556 11.6011 24.3103 13.3091 23.1479C15.0171 21.9856 17.523 21.4045 20.827 21.4045H23.956V19.1779C23.956 18.0857 23.6411 17.2385 23.011 16.6363C22.381 16.0342 21.45 15.7331 20.2181 15.7331C19.518 15.7331 18.895 15.8171 18.349 15.9852C17.803 16.1392 17.362 16.3282 17.026 16.5523L16.6271 18.9889H12.0071L12.0281 13.9477C13.1481 13.1914 14.4291 12.5543 15.871 12.0361C17.327 11.518 18.9091 11.2589 20.6171 11.2589C23.431 11.2589 25.713 11.9521 27.463 13.3384C29.227 14.7108 30.109 16.6713 30.109 19.22V28.6093C30.109 28.9594 30.109 29.2885 30.109 29.5966C30.123 29.9047 30.151 30.1987 30.193 30.4788L32.062 30.7309V34.4068H24.985ZM19.6721 30.3107C20.596 30.3107 21.436 30.1147 22.192 29.7227C22.9481 29.3165 23.536 28.8124 23.956 28.2102V24.7443H20.827C19.5251 24.7443 18.5381 25.0524 17.866 25.6686C17.194 26.2708 16.858 26.9989 16.858 27.8531C16.858 28.6233 17.103 29.2255 17.593 29.6596C18.097 30.0937 18.7901 30.3107 19.6721 30.3107Z" fill="#333333"/>
</svg>
